<svg width="1400" height="900" viewBox="0 0 1400 900" fill="none" xmlns="http://www.w3.org/2000/svg">
  <rect width="1400" height="900" rx="32" fill="#F8FAFC"/>
  <rect x="60" y="60" width="1280" height="780" rx="28" fill="white"/>
  <rect x="100" y="100" width="1200" height="140" rx="24" fill="url(#bg)"/>
  <rect x="130" y="130" width="350" height="30" rx="10" fill="#111827" fill-opacity="0.9"/>
  <rect x="130" y="184" width="520" height="18" rx="9" fill="#64748B" fill-opacity="0.75"/>
  <rect x="1020" y="130" width="140" height="44" rx="22" fill="#2563EB"/>
  <rect x="1180" y="130" width="90" height="44" rx="22" fill="#E2E8F0"/>
  <rect x="100" y="280" width="1200" height="500" rx="24" fill="#F8FAFC"/>
  <rect x="130" y="320" width="250" height="320" rx="24" fill="#FFFFFF" stroke="#E2E8F0"/>
  <rect x="160" y="345" width="190" height="110" rx="18" fill="#E0F2FE"/>
  <circle cx="255" cy="400" r="55" fill="#F8FAFC"/>
  <rect x="180" y="480" width="150" height="18" rx="9" fill="#111827"/>
  <rect x="180" y="510" width="110" height="14" rx="7" fill="#94A3B8"/>
  <rect x="420" y="320" width="250" height="320" rx="24" fill="#FFFFFF" stroke="#E2E8F0"/>
  <rect x="450" y="345" width="190" height="110" rx="18" fill="#FCE7F3"/>
  <circle cx="545" cy="400" r="55" fill="#F8FAFC"/>
  <rect x="470" y="480" width="150" height="18" rx="9" fill="#111827"/>
  <rect x="470" y="510" width="110" height="14" rx="7" fill="#94A3B8"/>
  <rect x="710" y="320" width="250" height="320" rx="24" fill="#FFFFFF" stroke="#E2E8F0"/>
  <rect x="740" y="345" width="190" height="110" rx="18" fill="#ECFCCB"/>
  <circle cx="835" cy="400" r="55" fill="#F8FAFC"/>
  <rect x="760" y="480" width="150" height="18" rx="9" fill="#111827"/>
  <rect x="760" y="510" width="110" height="14" rx="7" fill="#94A3B8"/>
  <rect x="1000" y="320" width="250" height="320" rx="24" fill="#FFFFFF" stroke="#E2E8F0"/>
  <rect x="1030" y="345" width="190" height="110" rx="18" fill="#FDE68A"/>
  <circle cx="1125" cy="400" r="55" fill="#F8FAFC"/>
  <rect x="1050" y="480" width="150" height="18" rx="9" fill="#111827"/>
  <rect x="1050" y="510" width="110" height="14" rx="7" fill="#94A3B8"/>
  <defs>
    <linearGradient id="bg" x1="100" y1="100" x2="1300" y2="240" gradientUnits="userSpaceOnUse">
      <stop stop-color="#FDF2F8"/>
      <stop offset="1" stop-color="#EFF6FF"/>
    </linearGradient>
  </defs>
</svg>
