<svg width="1400" height="1000" viewBox="0 0 1400 1000" fill="none" xmlns="http://www.w3.org/2000/svg">
  <rect width="1400" height="1000" rx="32" fill="#F8FAFC"/>
  <rect x="60" y="60" width="1280" height="880" rx="28" fill="white"/>
  <rect x="100" y="102" width="180" height="42" rx="21" fill="#E2E8F0"/>
  <rect x="100" y="170" width="520" height="40" rx="20" fill="url(#hero)"/>
  <rect x="100" y="230" width="620" height="20" rx="10" fill="#CBD5E1"/>
  <rect x="100" y="260" width="430" height="16" rx="8" fill="#E2E8F0"/>
  <rect x="100" y="310" width="1200" height="300" rx="28" fill="url(#card)"/>
  <rect x="140" y="348" width="280" height="220" rx="24" fill="#FFFFFF"/>
  <circle cx="280" cy="458" r="88" fill="#F8FAFC"/>
  <rect x="470" y="348" width="540" height="24" rx="12" fill="#111827" fill-opacity="0.9"/>
  <rect x="470" y="386" width="360" height="18" rx="9" fill="#64748B"/>
  <rect x="470" y="430" width="110" height="30" rx="15" fill="#FDE68A"/>
  <rect x="600" y="430" width="100" height="30" rx="15" fill="#BFDBFE"/>
  <rect x="470" y="480" width="180" height="18" rx="9" fill="#334155"/>
  <rect x="470" y="510" width="240" height="18" rx="9" fill="#334155"/>
  <rect x="470" y="548" width="140" height="18" rx="9" fill="#334155"/>
  <rect x="100" y="650" width="560" height="230" rx="24" fill="#FFFFFF" stroke="#E2E8F0"/>
  <rect x="140" y="692" width="220" height="18" rx="9" fill="#111827"/>
  <rect x="140" y="724" width="420" height="12" rx="6" fill="#E2E8F0"/>
  <rect x="140" y="748" width="390" height="12" rx="6" fill="#E2E8F0"/>
  <rect x="140" y="772" width="360" height="12" rx="6" fill="#E2E8F0"/>
  <rect x="740" y="650" width="560" height="230" rx="24" fill="#FFFFFF" stroke="#E2E8F0"/>
  <rect x="780" y="692" width="220" height="18" rx="9" fill="#111827"/>
  <rect x="780" y="730" width="170" height="34" rx="17" fill="#E0F2FE"/>
  <rect x="966" y="730" width="190" height="34" rx="17" fill="#FCE7F3"/>
  <rect x="780" y="782" width="260" height="18" rx="9" fill="#64748B"/>
  <defs>
    <linearGradient id="hero" x1="100" y1="170" x2="620" y2="210" gradientUnits="userSpaceOnUse">
      <stop stop-color="#FDF2F8"/>
      <stop offset="1" stop-color="#EFF6FF"/>
    </linearGradient>
    <linearGradient id="card" x1="100" y1="310" x2="1300" y2="610" gradientUnits="userSpaceOnUse">
      <stop stop-color="#FDF2F8"/>
      <stop offset="1" stop-color="#EFF6FF"/>
    </linearGradient>
  </defs>
</svg>
